<svg width="81" height="35" viewBox="0 0 81 35" fill="none" xmlns="http://www.w3.org/2000/svg">
<path d="M78.4297 6.00281V25.4961H74.0156V6.00281H78.4297Z" fill="black"/>
<path d="M72.387 12.5763V25.5234H68.462V24.4091C67.9669 24.8936 67.3997 25.263 66.7695 25.5234C66.1364 25.7989 65.4522 25.9382 64.717 25.9382C63.7927 25.9382 62.9375 25.7656 62.1513 25.4204C61.3651 25.0571 60.6809 24.5666 60.0988 23.9459C59.5166 23.3252 59.0545 22.5985 58.7124 21.7719C58.3883 20.9271 58.2263 20.0188 58.2263 19.0529C58.2263 18.087 58.3883 17.1877 58.7124 16.3611C59.0545 15.5164 59.5166 14.7806 60.0988 14.1599C60.6809 13.5392 61.3651 13.0547 62.1513 12.7096C62.9375 12.3462 63.7927 12.1646 64.717 12.1646C65.4522 12.1646 66.1364 12.3038 66.7695 12.5794C67.4027 12.8398 67.9669 13.2092 68.462 13.6936V12.5794H72.387V12.5763ZM65.4312 22.002C66.2354 22.002 66.8926 21.7265 67.4057 21.1724C67.9369 20.6213 68.2009 19.9128 68.2009 19.0499C68.2009 18.1869 67.9369 17.4784 67.4057 16.9273C66.8926 16.3763 66.2324 16.0977 65.4312 16.0977C64.63 16.0977 63.9608 16.3733 63.4297 16.9273C62.9165 17.4784 62.6584 18.1869 62.6584 19.0499C62.6584 19.9128 62.9165 20.6213 63.4297 21.1724C63.9608 21.7234 64.627 22.002 65.4312 22.002Z" fill="black"/>
<path d="M51.932 6C53.0963 6 54.0865 6.1635 54.9088 6.49051C55.731 6.81752 56.4242 7.27472 56.9883 7.86212C57.5705 8.46769 58.0236 9.15804 58.3477 9.93317C58.6718 10.7113 58.8338 11.547 58.8338 12.4463C58.8338 13.3455 58.6718 14.1812 58.3477 14.9594C58.0236 15.7375 57.5705 16.4279 56.9883 17.0304C56.4242 17.6178 55.731 18.075 54.9088 18.402C54.0865 18.7291 53.0963 18.8926 51.932 18.8926H49.8014V25.5205H45.3092V6H51.929H51.932ZM51.2898 14.8807C51.89 14.8807 52.3491 14.8201 52.6762 14.699C53.0183 14.5597 53.3003 14.3871 53.5224 14.1812C53.9845 13.7482 54.2156 13.1699 54.2156 12.4463C54.2156 11.7226 53.9845 11.1443 53.5224 10.7113C53.3003 10.5054 53.0183 10.3389 52.6762 10.2208C52.3521 10.0815 51.89 10.0149 51.2898 10.0149H49.8014V14.8837H51.2898V14.8807Z" fill="black"/>
<path d="M28.7658 12.5762H33.6421L36.952 18.7893H37.003L39.9528 12.5762H44.469L34.7944 32.0997H30.3022L34.7164 23.1676L28.7628 12.5762H28.7658Z" fill="black"/>
<path d="M27.8914 12.5763V25.5234H23.9664V24.4091C23.4713 24.8936 22.9041 25.263 22.2739 25.5234C21.6408 25.7989 20.9566 25.9382 20.2214 25.9382C19.2971 25.9382 18.4419 25.7656 17.6557 25.4204C16.8695 25.0571 16.1853 24.5666 15.6032 23.9459C15.021 23.3252 14.5589 22.5985 14.2168 21.7719C13.8927 20.9271 13.7307 20.0188 13.7307 19.0529C13.7307 18.087 13.8927 17.1877 14.2168 16.3611C14.5589 15.5164 15.021 14.7806 15.6032 14.1599C16.1853 13.5392 16.8695 13.0547 17.6557 12.7096C18.4419 12.3462 19.2971 12.1646 20.2214 12.1646C20.9566 12.1646 21.6408 12.3038 22.2739 12.5794C22.9071 12.8398 23.4713 13.2092 23.9664 13.6936V12.5794H27.8914V12.5763ZM20.9356 22.002C21.7398 22.002 22.397 21.7265 22.9131 21.1724C23.4442 20.6213 23.7083 19.9128 23.7083 19.0499C23.7083 18.1869 23.4442 17.4784 22.9131 16.9273C22.4 16.3763 21.7398 16.0977 20.9356 16.0977C20.1314 16.0977 19.4652 16.3733 18.934 16.9273C18.4209 17.4784 18.1628 18.1869 18.1628 19.0499C18.1628 19.9128 18.4209 20.6213 18.934 21.1724C19.4652 21.7234 20.1314 22.002 20.9356 22.002Z" fill="black"/>
<path d="M7.61977 6C8.78408 6 9.77434 6.1635 10.5966 6.49051C11.4188 6.81752 12.112 7.27472 12.6761 7.86212C13.2583 8.46769 13.7114 9.15804 14.0355 9.93317C14.3596 10.7113 14.5216 11.547 14.5216 12.4463C14.5216 13.3455 14.3596 14.1812 14.0355 14.9594C13.7114 15.7375 13.2583 16.4279 12.6761 17.0304C12.112 17.6178 11.4188 18.075 10.5966 18.402C9.77434 18.7291 8.78408 18.8926 7.61977 18.8926H5.4892V25.5205H1V6H7.61977ZM6.9806 14.8807C7.58076 14.8807 8.03988 14.8201 8.36697 14.699C8.70906 14.5597 8.99114 14.3871 9.21319 14.1812C9.67532 13.7482 9.90638 13.1699 9.90638 12.4463C9.90638 11.7226 9.67532 11.1443 9.21319 10.7113C8.99114 10.5054 8.70906 10.3389 8.36697 10.2208C8.04288 10.0815 7.58076 10.0149 6.9806 10.0149H5.4922V14.8837H6.9806V14.8807Z" fill="black"/>
</svg>
